<svg width="0" height="0" class="hidden">
  <symbol fill="none" xmlns="http://www.w3.org/2000/svg" viewBox="0 0 24 24" id="icon-arrow">
    <path opacity="0.5" fill-rule="evenodd" clip-rule="evenodd" d="M12 20.75C12.4142 20.75 12.75 20.4142 12.75 20L12.75 10.75L11.25 10.75L11.25 20C11.25 20.4142 11.5858 20.75 12 20.75Z" fill="#1C274C"></path>
    <path d="M6.00002 10.75C5.69667 10.75 5.4232 10.5673 5.30711 10.287C5.19103 10.0068 5.25519 9.68417 5.46969 9.46967L11.4697 3.46967C11.6103 3.32902 11.8011 3.25 12 3.25C12.1989 3.25 12.3897 3.32902 12.5304 3.46967L18.5304 9.46967C18.7449 9.68417 18.809 10.0068 18.6929 10.287C18.5768 10.5673 18.3034 10.75 18 10.75L6.00002 10.75Z" fill="#1C274C"></path>
  </symbol>
  <symbol fill="none" xmlns="http://www.w3.org/2000/svg" viewBox="0 0 24 24" id="icon-close">
    <path d="M14.5 9.50002L9.5 14.5M9.49998 9.5L14.5 14.5" stroke="#1C274C" stroke-width="1.5" stroke-linecap="round"></path>
    <path d="M7 3.33782C8.47087 2.48697 10.1786 2 12 2C17.5228 2 22 6.47715 22 12C22 17.5228 17.5228 22 12 22C6.47715 22 2 17.5228 2 12C2 10.1786 2.48697 8.47087 3.33782 7" stroke="#1C274C" stroke-width="1.5" stroke-linecap="round"></path>
  </symbol>
  <symbol fill="none" xmlns="http://www.w3.org/2000/svg" viewBox="0 0 24 24" id="icon-burger">
    <path d="M5 12H20" stroke="#000000" stroke-width="2" stroke-linecap="round"></path>
    <path d="M5 17H20" stroke="#000000" stroke-width="2" stroke-linecap="round"></path>
    <path d="M5 7H20" stroke="#000000" stroke-width="2" stroke-linecap="round"></path>
  </symbol>
</svg>